<?xml version="1.0" encoding="UTF-8"?><svg clip-rule="evenodd" fill-rule="evenodd" stroke-linejoin="round" stroke-miterlimit="1.414" aria-label="Logo" version="1.1" viewBox="0 0 1500 410" xmlns="http://www.w3.org/2000/svg" xmlns:cc="http://creativecommons.org/ns#" xmlns:dc="http://purl.org/dc/elements/1.1/" xmlns:rdf="http://www.w3.org/1999/02/22-rdf-syntax-ns#"><metadata><rdf:RDF><cc:Work rdf:about=""><dc:format>image/svg+xml</dc:format><dc:type rdf:resource="http://purl.org/dc/dcmitype/StillImage"/><dc:title/></cc:Work></rdf:RDF></metadata><path d="M335.1 261.86V139.606c0-15.898-8.42-30.606-22.126-38.66-29.417-17.283-81.387-47.818-113.215-66.52-16.81-9.872-37.69-9.65-54.28.58-28.17 17.37-72.12 44.47-100.49 61.967-17.11 10.55-27.53 29.21-27.53 49.31v125.172c0 19.938 10.58 38.376 27.79 48.437l104.72 61.212c13.92 8.14 31.11 8.317 45.2.47 30.58-17.036 84.74-47.196 115.94-64.575 14.8-8.25 23.97-23.86 23.97-40.8v-14.34z" fill="#FF4088"/><path d="m173.24 13.676c15.946-0.48242 30.921 6.4927 43.88 15.212 35.646 21.196 71.765 41.702 107.17 63.251 16.695 11.707 25.684 32.526 24.1 52.704-0.20298 45.694 0.38679 91.42-0.26 137.1-1.8128 20.404-14.935 39.149-33.306 48.133-39.295 21.685-78.274 44.011-117.73 65.357-18.385 8.5363-40.736 6.0816-57.48-5.0394-34.999-20.65-70.676-40.841-105.32-61.731-19.797-13.359-31.779-37.147-30.492-60.983 0.21721-42.588-0.41064-85.21 0.27-127.78 1.8659-23.516 16.501-45.249 37.188-56.45 34.048-20.759 67.726-42.224 101.96-62.624 9.2879-4.6919 19.73-6.9473 30.02-7.147zm-0.23 27c-16.089-0.20412-28.54 11.75-41.742 19.064-27.729 17.404-56.036 33.95-83.459 51.811-12.469 9.5152-18.295 25.795-16.83 41.184 0.22517 41.32-0.4341 82.679 0.3 123.98 1.5306 15.317 12.292 28.5 26.067 34.858 34.354 19.842 68.33 40.407 102.89 59.852 11.359 5.2934 24.687 2.0279 34.576-4.9211 37.671-21.216 75.742-41.792 113.19-63.359 10.478-7.3127 14.99-20.756 13.6-33.164-0.19959-44.771 0.3864-89.585-0.27-134.33-1.2426-12.258-10.579-21.944-21.436-26.839-37.091-21.532-73.82-43.743-111.11-64.899-4.9402-2.1678-10.399-3.3876-15.782-3.233z" fill="#c9177e"/><path d="M96.91 309.916v-207.22h43.354v75.48h71.916v-75.48h43.48v207.22h-43.48V219.31h-71.916v90.606H96.91z" fill="#fff" fill-rule="nonzero"/><path d="M715.9 259.25V136.59c0-15.645-8.285-30.12-21.774-38.046L580.56 31.818c-16.805-9.873-37.69-9.65-54.28.58l-96.142 59.286c-19.81 12.215-31.87 33.823-31.87 57.095v120.06c0 19.93 10.58 38.37 27.792 48.43l104.718 61.21c13.925 8.14 31.113 8.31 45.204.47l115.945-64.58c14.798-8.25 23.973-23.86 23.973-40.8v-14.34z" fill="#0594CB"/><path d="m554.04 11.067c15.212-0.34486 29.703 5.685 42.11 14.126 36.305 21.59 73.038 42.527 109.12 64.456 17.033 11.812 25.734 33.169 23.93 53.58-0.21324 45.254 0.40504 90.549-0.27 135.78-1.7025 20.914-15.455 39.887-34.271 48.927-38.947 21.489-77.601 43.595-116.7 64.763-18.689 8.8048-41.571 6.2275-58.48-5.397-34.963-20.686-70.408-40.639-105.13-61.697-19.559-13.422-30.845-37.308-29.619-60.899 0.24536-41.01-0.45777-82.052 0.29-123.05 2.0655-26.389 18.144-51.009 41.35-63.717 32.701-19.879 64.962-40.588 97.88-60.054 9.2366-4.4521 19.554-7.2091 29.786-6.823zm-0.23 27c-15.76-0.7239-28.081 10.992-40.907 18.171-26.827 16.89-54.293 32.831-80.783 50.222-15.122 11.505-22.156 31.213-20.493 49.841 0.22221 39.108-0.42582 78.255 0.29 117.34 1.5388 15.026 11.896 28.072 25.347 34.514 34.615 19.99 68.855 40.703 103.68 60.296 11.426 5.2761 24.817 2.028 34.747-4.9792 37.583-21.151 75.56-41.664 112.92-63.171 10.741-7.5393 15.294-21.381 13.78-34.113-0.21346-44.537 0.41389-89.116-0.29-133.63-1.2304-11.988-10.658-21.096-21.14-25.92-37.12-21.621-73.854-43.959-111.19-65.179-4.9573-2.2903-10.514-3.5091-15.961-3.394z" fill="#0083c0"/><path d="M477.32 109.382h42.288V221.55c0 17.8.488 29.335 1.468 34.61 1.69 8.476 4.814 14.367 11.177 19.5 6.364 5.13 13.795 6.586 24.832 6.586 11.214 0 14.968-1.736 20.664-6.587 5.69-4.86 9.12-9.47 10.28-16.54 1.15-7.07 3.07-18.79 3.07-35.18V109.38h42.28v108.78c0 24.862-1.07 42.425-3.21 52.69-2.14 10.267-6.08 18.932-11.82 25.995-5.74 7.064-13.42 12.69-23.03 16.88-9.62 4.192-22.16 6.287-37.65 6.287-18.69 0-32.87-2.284-42.52-6.85-9.66-4.568-17.29-10.502-22.9-17.8-5.61-7.3-9.3-14.952-11.08-22.957-2.58-11.865-3.88-29.383-3.88-52.552v-110.47z" fill="#fff" fill-rule="nonzero"/><path d="m1099.4 259.25v-122.3c0-15.835-8.485-30.456-22.232-38.313-29.61-16.92-81.932-46.823-113.67-64.96-16.524-9.444-36.86-9.23-53.18 0.56-26.532 15.913-67.455 40.46-95.98 57.567-20.207 12.12-32.573 33.96-32.573 57.52v119.53c0 19.93 10.58 38.37 27.793 48.43l104.72 61.21c13.925 8.14 31.113 8.31 45.204 0.47l115.94-64.58c14.8-8.25 23.98-23.85 23.98-40.79v-14.35z" fill="#33BA91"/><path d="m937.49 13.234c15.06-0.02727 29.502 5.7081 41.929 13.967 36.447 21.048 73.311 41.472 109.55 62.83 16.736 11.574 25.779 32.336 24.3 52.455-0.2082 45.666 0.3982 91.37-0.27 137.01-1.6572 20.478-14.849 39.235-33.181 48.36-39.325 21.678-78.329 44.034-117.82 65.36-18.465 8.5004-41.006 6.3148-57.84-4.9345-35.193-20.773-70.84-40.872-105.8-61.996-19.559-13.3-31.312-37.003-30.128-60.553 0.2315-41.121-0.43869-82.275 0.29-123.38 2.0285-26.413 18.236-50.978 41.465-63.634 32.799-19.394 65.206-39.569 98.204-58.565 9.0506-4.6005 19.514-6.6608 29.297-6.927zm-0.22 27c-16.578-0.06804-29.399 12.341-43.223 19.578-25.837 15.842-52.299 30.728-77.81 47.069-15.123 11.229-22.772 30.576-21.13 49.16 0.23703 39.371-0.45452 78.781 0.31 118.13 1.5997 15.264 12.343 28.341 26.067 34.692 34.364 19.847 68.351 40.419 102.92 59.868 11.395 5.2128 24.697 1.9809 34.585-5.0023 37.656-21.192 75.708-41.741 113.14-63.288 10.526-7.3857 14.88-20.935 13.54-33.38-0.192-44.702 0.3718-89.44-0.26-134.12-1.3275-12.106-10.754-21.44-21.483-26.165-37.138-21.026-73.916-42.742-111.26-63.382-4.779-2.0446-10.659-3.2587-15.408-3.159z" fill="#00a88a"/><path d="M1482.54 259.914V137.607c0-15.834-8.486-30.455-22.233-38.312L1346.64 34.333c-16.525-9.444-36.86-9.23-53.18.56l-95.98 57.568c-20.208 12.13-32.574 33.96-32.574 57.53v119.52c0 19.94 10.58 38.38 27.793 48.44 29.94 17.51 77.02 45.02 104.71 61.21 13.92 8.14 31.11 8.32 45.2.47l115.94-64.57c14.8-8.24 23.97-23.85 23.97-40.79v-14.35z" fill="#EBB951"/><path d="m1320.7 13.897c14.976-0.41525 29.23 5.4931 41.55 13.625 36.246 20.955 72.919 41.267 108.94 62.557 16.641 11.361 25.986 31.769 24.66 51.761-0.1911 45.835 0.3663 91.705-0.25 137.52-1.7003 21.074-15.358 40.481-34.424 49.543-38.968 21.478-77.606 43.636-116.75 64.757-18.446 8.5776-40.978 6.3909-57.791-4.8773-35.358-20.917-71.187-41.147-106.31-62.403-19.45-13.603-30.708-37.562-29.341-61.135 0.233-40.695-0.439-81.535 0.286-122.15 2.0921-26.814 18.572-51.83 42.278-64.509 32.498-19.243 64.625-39.199 97.302-58.093 9.211-4.4454 19.636-7.2436 29.842-6.602zm-0.22 27c-16.621-0.58665-29.459 12.155-43.264 19.284-25.962 15.934-52.574 30.875-78.203 47.318-14.957 11.144-22.365 30.342-20.82 48.709 0.2146 39.335-0.4112 78.708 0.28 118.02 1.5779 14.972 11.878 28.036 25.354 34.379 34.613 19.996 68.865 40.687 103.68 60.301 11.403 5.3284 24.788 2.0686 34.728-4.9053 37.62-21.125 75.649-41.594 113.04-63.085 10.249-7.1729 14.913-20.214 13.61-32.423-0.1993-44.96 0.386-89.961-0.27-134.9-1.2522-12.174-10.739-21.59-21.514-26.333-36.978-20.914-73.596-42.524-110.78-63.045-4.9622-2.1895-10.696-3.1209-15.843-3.324z" fill="#fcd804"/><path d="M1039.925 204.026c0 47.187-8.943 60.934-26.816 80.584-17.87 19.65-41.57 27.567-71.1 27.567-26.99 0-48.75-9.575-67.61-26.23-20.88-18.446-36.08-47.037-36.08-78.945 0-31.37 11.72-58.485 32.49-78.676 18.22-17.667 45.34-29.177 73.31-29.177 33.76 0 68.82 15.98 90.43 47.53l-31.73 26.82c-13.45-25.03-32.94-33.46-60.82-34.26-30.83-.88-64.77 28.53-62.25 67.75 1.4 21.94 11.65 59.65 60.96 66.57 25.91 3.63 55.36-24.02 55.36-39.04H947.4v-37.5h92.508V204z" fill="#fff" fill-rule="nonzero"/><path d="m1323.7 99.15c58.784 0 106.52 47.728 106.52 106.51 0 58.787-47.736 106.51-106.52 106.51-58.783 0-106.52-47.727-106.52-106.51 0-58.786 47.737-106.51 106.52-106.51zm0 39.572c36.946 0 66.936 29.996 66.936 66.942s-29.99 66.94-66.94 66.94-66.94-29.994-66.94-66.94 29.99-66.942 66.93-66.942z" fill="#fff"/></svg>